<svg width="13" height="13" viewBox="0 0 13 13" fill="none" xmlns="http://www.w3.org/2000/svg">
<path d="M6.5 0C4.77609 0 3.12279 0.68482 1.90381 1.90381C0.68482 3.12279 0 4.77609 0 6.5C0 8.22391 0.68482 9.87721 1.90381 11.0962C3.12279 12.3152 4.77609 13 6.5 13C8.22391 13 9.87721 12.3152 11.0962 11.0962C12.3152 9.87721 13 8.22391 13 6.5C13 4.77609 12.3152 3.12279 11.0962 1.90381C9.87721 0.68482 8.22391 0 6.5 0ZM0.801667 6.99111H2.61444C2.64333 7.64833 2.73506 8.30122 2.88889 8.94111H1.32889C1.03857 8.32764 0.860029 7.66729 0.801667 6.99111ZM6.99111 3.09111V0.859444C7.6871 1.12394 8.25901 1.63917 8.59444 2.30389C8.74274 2.55474 8.87274 2.81474 8.98444 3.08389L6.99111 3.09111ZM9.31667 4.06611C9.48422 4.70383 9.58389 5.35744 9.61278 6.01611H6.99111V4.06611H9.31667ZM6.00889 0.859444V3.09111H4.01556C4.1269 2.82219 4.25723 2.56154 4.40556 2.31111C4.73956 1.64367 5.31165 1.1257 6.00889 0.859444ZM6.00889 4.06611V6.01611H3.39444C3.42333 5.35744 3.523 4.70383 3.69056 4.06611H6.00889ZM2.61444 6.00889H0.801667C0.860029 5.3327 1.03857 4.67236 1.32889 4.05889H2.88889C2.73418 4.69841 2.64226 5.35151 2.61444 6.00889ZM3.39444 6.99111H6.00889V8.94111H3.69056C3.52366 8.30331 3.42441 7.6497 3.39444 6.99111ZM6.01611 9.88V12.1117C5.32012 11.8472 4.74821 11.3319 4.41278 10.6672C4.26445 10.4168 4.13412 10.1561 4.02278 9.88722L6.01611 9.88ZM6.99111 12.1117V9.91611H8.98444C8.8731 10.185 8.74277 10.4457 8.59444 10.6961C8.25901 11.3608 7.6871 11.8761 6.99111 12.1406V12.1117ZM6.99111 8.905V6.955H9.60556C9.57559 7.61359 9.47634 8.2672 9.30944 8.905H6.99111ZM10.3928 6.955H12.2056C12.1472 7.63118 11.9687 8.29153 11.6783 8.905H10.1111C10.2628 8.27667 10.3545 7.63606 10.3856 6.99111L10.3928 6.955ZM10.3928 5.98C10.3603 5.3345 10.266 4.69361 10.1111 4.06611H11.6711C11.9622 4.68 12.1406 5.34011 12.1983 6.01611L10.3928 5.98ZM11.115 3.09111H9.82222C9.58854 2.434 9.24948 1.8193 8.81833 1.27111C9.71705 1.67453 10.4977 2.30104 11.0861 3.09111H11.115ZM4.18167 1.27111C3.75052 1.8193 3.41146 2.434 3.17778 3.09111H1.91389C2.5023 2.30104 3.28295 1.67453 4.18167 1.27111ZM1.90667 9.93778H3.17778C3.41146 10.5949 3.75052 11.2096 4.18167 11.7578C3.28046 11.3483 2.49957 10.7141 1.91389 9.91611L1.90667 9.93778ZM8.81111 11.7578C9.24226 11.2096 9.58132 10.5949 9.815 9.93778H11.0861C10.4941 10.7173 9.71377 11.3336 8.81833 11.7289L8.81111 11.7578Z" fill="white"/>
</svg>
