<svg width="15" height="13" viewBox="0 0 15 13" fill="none" xmlns="http://www.w3.org/2000/svg">
<path d="M8.27778 1.25H14.5M8.27778 4.25H12.1667M8.27778 8.75H14.5M8.27778 11.75H12.1667M0.5 1.25C0.5 1.05109 0.581944 0.860322 0.727806 0.71967C0.873667 0.579018 1.0715 0.5 1.27778 0.5H4.38889C4.59517 0.5 4.793 0.579018 4.93886 0.71967C5.08472 0.860322 5.16667 1.05109 5.16667 1.25V4.25C5.16667 4.44891 5.08472 4.63968 4.93886 4.78033C4.793 4.92098 4.59517 5 4.38889 5H1.27778C1.0715 5 0.873667 4.92098 0.727806 4.78033C0.581944 4.63968 0.5 4.44891 0.5 4.25V1.25ZM0.5 8.75C0.5 8.55109 0.581944 8.36032 0.727806 8.21967C0.873667 8.07902 1.0715 8 1.27778 8H4.38889C4.59517 8 4.793 8.07902 4.93886 8.21967C5.08472 8.36032 5.16667 8.55109 5.16667 8.75V11.75C5.16667 11.9489 5.08472 12.1397 4.93886 12.2803C4.793 12.421 4.59517 12.5 4.38889 12.5H1.27778C1.0715 12.5 0.873667 12.421 0.727806 12.2803C0.581944 12.1397 0.5 11.9489 0.5 11.75V8.75Z" stroke="black" stroke-linecap="round" stroke-linejoin="round"/>
</svg>
